<svg xmlns="http://www.w3.org/2000/svg" viewBox="0 0 64 64" width="64" height="64"><rect width="64" height="64" rx="13" fill="#1b1518"/><rect x="0.75" y="0.75" width="62.50" height="62.50" rx="12" fill="none" stroke="#5a4b58" stroke-width="1.5"/><rect x="26.54" y="11.96" width="4.24" height="4.24" fill="#f4a3c0"/><rect x="30.18" y="11.96" width="4.24" height="4.24" fill="#f4a3c0"/><rect x="26.54" y="15.61" width="4.24" height="4.24" fill="#f4a3c0"/><rect x="30.18" y="15.61" width="4.24" height="4.24" fill="#f4a3c0"/><rect x="26.54" y="19.25" width="4.24" height="4.24" fill="#f4a3c0"/><rect x="30.18" y="19.25" width="4.24" height="4.24" fill="#f4a3c0"/><rect x="11.96" y="22.89" width="4.24" height="4.24" fill="#f4a3c0"/><rect x="15.61" y="22.89" width="4.24" height="4.24" fill="#f4a3c0"/><rect x="19.25" y="22.89" width="4.24" height="4.24" fill="#f4a3c0"/><rect x="22.89" y="22.89" width="4.24" height="4.24" fill="#f4a3c0"/><rect x="26.54" y="22.89" width="4.24" height="4.24" fill="#f4a3c0"/><rect x="30.18" y="22.89" width="4.24" height="4.24" fill="#f4a3c0"/><rect x="33.82" y="22.89" width="4.24" height="4.24" fill="#f4a3c0"/><rect x="37.46" y="22.89" width="4.24" height="4.24" fill="#f4a3c0"/><rect x="41.11" y="22.89" width="4.24" height="4.24" fill="#f4a3c0"/><rect x="44.75" y="22.89" width="4.24" height="4.24" fill="#f4a3c0"/><rect x="15.61" y="26.54" width="4.24" height="4.24" fill="#f4a3c0"/><rect x="19.25" y="26.54" width="4.24" height="4.24" fill="#f4a3c0"/><rect x="22.89" y="26.54" width="4.24" height="4.24" fill="#f4a3c0"/><rect x="26.54" y="26.54" width="4.24" height="4.24" fill="#f4a3c0"/><rect x="30.18" y="26.54" width="4.24" height="4.24" fill="#f4a3c0"/><rect x="33.82" y="26.54" width="4.24" height="4.24" fill="#f4a3c0"/><rect x="37.46" y="26.54" width="4.24" height="4.24" fill="#f4a3c0"/><rect x="41.11" y="26.54" width="4.24" height="4.24" fill="#f4a3c0"/><rect x="19.25" y="30.18" width="4.24" height="4.24" fill="#f4a3c0"/><rect x="22.89" y="30.18" width="4.24" height="4.24" fill="#f4a3c0"/><rect x="26.54" y="30.18" width="4.24" height="4.24" fill="#f4a3c0"/><rect x="30.18" y="30.18" width="4.24" height="4.24" fill="#f4a3c0"/><rect x="33.82" y="30.18" width="4.24" height="4.24" fill="#f4a3c0"/><rect x="37.46" y="30.18" width="4.24" height="4.24" fill="#f4a3c0"/><rect x="19.25" y="33.82" width="4.24" height="4.24" fill="#f4a3c0"/><rect x="22.89" y="33.82" width="4.24" height="4.24" fill="#f4a3c0"/><rect x="26.54" y="33.82" width="4.24" height="4.24" fill="#f4a3c0"/><rect x="30.18" y="33.82" width="4.24" height="4.24" fill="#f4a3c0"/><rect x="33.82" y="33.82" width="4.24" height="4.24" fill="#f4a3c0"/><rect x="37.46" y="33.82" width="4.24" height="4.24" fill="#f4a3c0"/><rect x="19.25" y="37.46" width="4.24" height="4.24" fill="#f4a3c0"/><rect x="22.89" y="37.46" width="4.24" height="4.24" fill="#f4a3c0"/><rect x="26.54" y="37.46" width="4.24" height="4.24" fill="#f4a3c0"/><rect x="30.18" y="37.46" width="4.24" height="4.24" fill="#f4a3c0"/><rect x="33.82" y="37.46" width="4.24" height="4.24" fill="#f4a3c0"/><rect x="37.46" y="37.46" width="4.24" height="4.24" fill="#f4a3c0"/><rect x="19.25" y="41.11" width="4.24" height="4.24" fill="#f4a3c0"/><rect x="22.89" y="41.11" width="4.24" height="4.24" fill="#f4a3c0"/><rect x="33.82" y="41.11" width="4.24" height="4.24" fill="#f4a3c0"/><rect x="37.46" y="41.11" width="4.24" height="4.24" fill="#f4a3c0"/></svg>