<svg width="64" height="64" viewBox="0 0 64 64" xmlns="http://www.w3.org/2000/svg"><mask id="satori_om-id"><rect x="0" y="0" width="64" height="64" fill="#fff"/></mask><defs><clipPath id="satori_bc-id-0"><path x="0" y="0" width="64" height="64" d="M13,0 h38 a13,13 0 0 1 13,13 v38 a13,13 0 0 1 -13,13 h-38 a13,13 0 0 1 -13,-13 v-38 a13,13 0 0 1 13,-13"/></clipPath></defs><mask id="satori_om-id-0"><rect x="1" y="1" width="62" height="62" fill="#fff"/><path width="64" height="64" fill="none" stroke="#000" stroke-width="2" d="M3.808,3.808 A13,13 0 0 1 13,0 h38 a13,13 0 0 1 13,13 v38 a13,13 0 0 1 -13,13 h-38 a13,13 0 0 1 -13,-13 v-38 A13,13 0 0 1 3.808,3.808"/></mask><path x="0" y="0" width="64" height="64" fill="#1b1518" d="M13,0 h38 a13,13 0 0 1 13,13 v38 a13,13 0 0 1 -13,13 h-38 a13,13 0 0 1 -13,-13 v-38 a13,13 0 0 1 13,-13"/><path width="64" height="64" clip-path="url(#satori_bc-id-0)" fill="none" stroke="#5a4b58" stroke-width="2" d="M3.808,3.808 A13,13 0 0 1 13,0 h38 a13,13 0 0 1 13,13 v38 a13,13 0 0 1 -13,13 h-38 a13,13 0 0 1 -13,-13 v-38 A13,13 0 0 1 3.808,3.808"/><mask id="satori_om-id-0-0"><rect x="15" y="16" width="34" height="32" fill="#fff"/></mask><g  ><path fill="#cba8de" d="M24.6 48.4L24.0 48.3C22.8 48.2 22.3 47.5 22.3 46.3L22.3 42.1C22.9 42.2 23.6 42.3 24.4 42.3C29.3 42.3 33.7 39.1 33.7 33.2C33.7 28.4 30.6 25.8 27.6 25.8C25.3 25.8 23.8 26.9 21.9 29.2L21.2 30.2L21.2 29.2L22.3 27.7L22.3 25.6L15.2 27.7L16.3 28.3C17.6 28.9 17.8 29.3 17.8 30.3L17.8 46.3C17.8 47.5 17.4 48.2 16.4 48.3L15.7 48.4L15.7 49.4L24.6 49.4ZM25.4 28.3C27.6 28.3 29.2 30.8 29.2 34.2C29.2 38.2 27.4 40.8 24.9 40.8C23.8 40.8 23 40.5 22.3 40.0L22.3 30.4C23.0 29.3 24.0 28.3 25.4 28.3ZM41.1 27.7C42.9 27.7 44.0 28.8 44.9 30.4L45.6 31.6L47 31.6L46.9 25.9L44.2 26.5C44.3 26.6 45.0 27.2 45.3 27.5L45.3 28.7C44.3 27.1 42.5 26 40.6 26C37.6 26 35.3 28.1 35.3 30.9C35.3 33.1 36.6 34.8 39.3 35.7L42.6 36.8C44.1 37.2 44.5 37.8 44.5 38.6C44.5 39.8 43.6 40.6 42.1 40.6C40.0 40.6 38.6 39.6 37.6 37.8L36.8 36.5L35.4 36.5L35.5 42.4L38.2 41.5C38.1 41.5 37.5 40.9 37.1 40.6L37.1 39.4C38.2 41.1 40.2 42.2 42.3 42.2C45.8 42.2 48.3 40.0 48.3 37.3C48.3 35.2 47.0 33.6 44.3 32.7L40.5 31.5C39.3 31.1 38.9 30.4 38.9 29.6C38.9 28.6 39.7 27.7 41.1 27.7Z "/></g><mask id="satori_om-id-0-1"><rect x="21" y="48" width="22" height="3" fill="#fff"/></mask><path x="21" y="48" width="22" height="3" fill="#edab8d" d="M22.5,48 h19 a1.5,1.5 0 0 1 1.5,1.5 v0 a1.5,1.5 0 0 1 -1.5,1.5 h-19 a1.5,1.5 0 0 1 -1.5,-1.5 v0 a1.5,1.5 0 0 1 1.5,-1.5"/></svg>